<svg xmlns="http://www.w3.org/2000/svg" width="40" height="40" viewBox="0 0 40 40"><circle cx="20" cy="20" r="20" fill="#a1a3a5"/><path d="M8.259,14.654l-.082,0H0V.039H.039C.726.029,3.128,0,5.206,0c1.407,0,2.406.013,2.97.039A4.672,4.672,0,0,1,9.555.3a3.574,3.574,0,0,1,1.166.681,3.141,3.141,0,0,1,.807,1.121,4,4,0,0,1,.3,1.586c0,2.126-.964,2.6-1.668,2.94-.1.048-.2.1-.289.148H9.93a2.061,2.061,0,0,1,1.959,1.3,5.76,5.76,0,0,1,.463,2.176,5.537,5.537,0,0,1-.661,2.464,3.691,3.691,0,0,1-1.263,1.313A4.315,4.315,0,0,1,8.259,14.654ZM5.907,8.24c-1.248,0-2.545.019-2.558.019v3.784H7.611a.716.716,0,0,0,.077,0,1.259,1.259,0,0,0,.8-.293,2.153,2.153,0,0,0,.6-1.667,1.926,1.926,0,0,0-.345-1.409,1.532,1.532,0,0,0-1.133-.418C7.214,8.246,6.64,8.24,5.907,8.24Zm-.2-5.567c-1.023,0-2.06.012-2.353.016H3.349V5.907H7.285a.693.693,0,0,0,.071,0,1.228,1.228,0,0,0,.737-.249A1.754,1.754,0,0,0,8.65,4.243a1.579,1.579,0,0,0-.292-1.171,1.449,1.449,0,0,0-1.073-.383C6.914,2.678,6.384,2.672,5.711,2.672Z" transform="translate(8.525 12.749)" fill="#fff"/><path d="M5.662,11.4a7.205,7.205,0,0,1-3.043-.7A4.543,4.543,0,0,1,.943,9.261a5.008,5.008,0,0,1-.728-1.58,6.846,6.846,0,0,1-.2-1.125L.008,6.481C-.085,3.87.656,2.018,2.21.977A6.845,6.845,0,0,1,5.656,0h.006A4.839,4.839,0,0,1,9.468,1.5a4.923,4.923,0,0,1,.923,1.586,7.2,7.2,0,0,1,.376,1.623,8.343,8.343,0,0,1,.027,1.774H3.183a2.352,2.352,0,0,0,.543,1.688,2.669,2.669,0,0,0,1.936.748c.054,0,.108,0,.161,0a2.5,2.5,0,0,0,1.95-.785,2.132,2.132,0,0,0,.455-.785h2.566a3.933,3.933,0,0,1-.661,2.265,3.689,3.689,0,0,1-1.5,1.209A7.158,7.158,0,0,1,5.662,11.4Zm-.114-9.18A2.158,2.158,0,0,0,3.658,3.3a3.452,3.452,0,0,0-.432,1.089h4.7a2.978,2.978,0,0,0-.365-1.055,2.2,2.2,0,0,0-1.9-1.12Z" transform="translate(21.435 16.484)" fill="#fff"/><rect width="6" height="2" transform="translate(24 14)" fill="#fff"/></svg>