<svg xmlns="http://www.w3.org/2000/svg" width="36" height="24" viewBox="0 0 36 24">
  <g id="burger-icon" transform="translate(-68.5 -497.064)">
    <path id="Union_9" data-name="Union 9" d="M15.911,3H1.286A1.405,1.405,0,0,1,0,1.5,1.405,1.405,0,0,1,1.286,0H34.5a1.5,1.5,0,1,1,0,3Z" transform="translate(68.5 497.064)" fill="#fff"/>
    <path id="Union_12" data-name="Union 12" d="M11.049,3H.893C.4,3,0,2.329,0,1.5S.4,0,.893,0H23.957C24.533,0,25,.671,25,1.5S24.533,3,23.957,3Z" transform="translate(73.5 507.064)" fill="#fff"/>
    <path id="Union_15" data-name="Union 15" d="M15.911,3H1.286A1.405,1.405,0,0,1,0,1.5,1.405,1.405,0,0,1,1.286,0H34.5a1.5,1.5,0,1,1,0,3Z" transform="translate(68.5 518.064)" fill="#fff"/>
  </g>
</svg>
