<svg xmlns="http://www.w3.org/2000/svg" xmlns:xlink="http://www.w3.org/1999/xlink" width="40" height="40" viewBox="0 0 40 40"><defs><clipPath id="a"><circle cx="20" cy="20" r="20"/></clipPath></defs><g transform="translate(0 0)"><circle cx="20" cy="20" r="20" fill="#a1a3a5"/><g transform="translate(0 0)" clip-path="url(#a)"><path d="M7.911,31.1a2.672,2.672,0,0,0,1.842-1.133s.035-1.877,0-3.931c-6.091.46-6.374-1.7-6.835-2.691A5.422,5.422,0,0,0,.97,20.761C-.092,20.052,0,20.041,0,19.686c2.6-1,3.9,1.712,4.545,2.6,2.125,2.243,4.25,1.18,5.371.826a4.614,4.614,0,0,1,1.172-2.594l-.287,0C.356,19.332,2.009,9.535,2.186,8.59a9.758,9.758,0,0,1,1.96-3.3A6.529,6.529,0,0,1,4.37.009C6.212-.125,8.7,1.292,9.81,2a17.6,17.6,0,0,1,5.3-.607,25.43,25.43,0,0,1,4.487.67C20.619,1.4,23.253-.152,25.157.044a7.478,7.478,0,0,1,.232,5.139c2.645,2.9,1.976,6.566,1.94,7.715-.826,7.2-8.735,7.614-8.735,7.614l-.065,0A5.644,5.644,0,0,1,19.774,24.2s-.036,2.762,0,5.772c.177.637,1.381,1.133,1.381,1.133l-6.3,1.027h-.016A48,48,0,0,1,7.911,31.1Z" transform="translate(4.812 7.792)" fill="#fff"/></g></g></svg>