<svg xmlns="http://www.w3.org/2000/svg" width="40" height="40" viewBox="0 0 40 40"><g transform="translate(0 0.333)"><circle cx="20" cy="20" r="20" transform="translate(0 -0.333)" fill="#a1a3a5"/><path d="M13.964,19.838H5.947a8.629,8.629,0,0,1-1.847-.3,6.036,6.036,0,0,1-1.41-.592A4.934,4.934,0,0,1,.939,17.22a7.056,7.056,0,0,1-.892-3.254c0-.053-.006-.1-.009-.137-.07-.943-.03-5.452,0-8.056a7.842,7.842,0,0,1,.33-1.863A5.74,5.74,0,0,1,1.027,2.5,5.157,5.157,0,0,1,2.9.778,6.676,6.676,0,0,1,5.9,0H14.01a6.676,6.676,0,0,1,3,.778A5.157,5.157,0,0,1,18.883,2.5a5.74,5.74,0,0,1,.658,1.412,7.842,7.842,0,0,1,.33,1.863c.03,2.6.07,7.113,0,8.056,0,.039-.006.084-.009.136a7.057,7.057,0,0,1-.892,3.254,4.934,4.934,0,0,1-1.75,1.729,6.036,6.036,0,0,1-1.41.592A8.629,8.629,0,0,1,13.964,19.838Zm-3.97-1.828.872,0c1.178,0,2.307-.009,3.356-.027A3.763,3.763,0,0,0,17.063,16.9a4.236,4.236,0,0,0,1.006-2.09,5.212,5.212,0,0,0,.1-1.132c0-.06,0-6.051-.02-6.827,0-.106,0-.227,0-.355a5.1,5.1,0,0,0-.987-3.452A3.464,3.464,0,0,0,14.946,2a19.757,19.757,0,0,0-3.464-.227c-.517,0-1.042.008-1.488.016-.446-.008-.971-.016-1.488-.016A19.758,19.758,0,0,0,5.041,2,3.464,3.464,0,0,0,2.825,3.042a5.1,5.1,0,0,0-.987,3.452c0,.128,0,.249,0,.355-.02.776-.02,6.767-.02,6.827a5.211,5.211,0,0,0,.1,1.132A4.236,4.236,0,0,0,2.924,16.9a3.763,3.763,0,0,0,2.841,1.089c1.046.018,2.176.027,3.358.027Z" transform="translate(10.621 9.167)" fill="#fff"/><ellipse cx="1.208" cy="1.208" rx="1.208" ry="1.208" transform="translate(24.623 12.591)" fill="#fff"/><path d="M5.085,10.171A5.087,5.087,0,0,1,3.106.4,5.087,5.087,0,0,1,7.065,9.771,5.053,5.053,0,0,1,5.085,10.171Zm0-8.459A3.373,3.373,0,1,0,8.459,5.085,3.377,3.377,0,0,0,5.085,1.712Z" transform="translate(15.459 14.001)" fill="#fff"/></g></svg>