<svg xmlns="http://www.w3.org/2000/svg" width="40" height="40" viewBox="0 0 40 40"><circle cx="20" cy="20" r="20" fill="#a1a3a5"/><path d="M11.454,14.439h0c-2.6,0-5.249-.076-6.67-.116h0l-.8-.022-.186,0h0a4.432,4.432,0,0,1-1.973-.4,2.668,2.668,0,0,1-1.073-.953A3.448,3.448,0,0,1,.295,11.8a7.356,7.356,0,0,1-.133-1.011c-.007-.084-.013-.164-.02-.232C.038,9.419-.01,8.187,0,6.892c.009-1.049.059-2.12.141-3.015C.27.217,2.511.152,4.312.1c.27-.008.525-.015.765-.034C6.85.022,8.414,0,9.725,0,11.96,0,12.693.065,12.7.065c.771.019,1.23.027,1.566.033.8.014.885.015,2.816.13a4.351,4.351,0,0,1,1.524.336,2.444,2.444,0,0,1,.886.659,3.411,3.411,0,0,1,.644,1.55h0c.014.067.028.131.041.19A32.7,32.7,0,0,1,20.443,9.4q0,.191-.005.377a9.682,9.682,0,0,1-.142,1.463,5.609,5.609,0,0,1-.312,1.1,3.529,3.529,0,0,1-.445.8,2.7,2.7,0,0,1-.542.54,2.928,2.928,0,0,1-1.227.514,7.114,7.114,0,0,1-1.177.1c-.115,0-.224.006-.326.01C15.1,14.393,13.479,14.439,11.454,14.439ZM8.107,4.194v5.962l5.229-2.932Z" transform="translate(9.148 12.646)" fill="#fff"/></svg>