<svg xmlns="http://www.w3.org/2000/svg" fill="#fff" width="64" height="64" viewBox="0 0 64 64">
  <g id="readmore-icon" transform="translate(0.381 0.19)">
    <circle id="Ellipse_34" data-name="Ellipse 34" cx="30.5" cy="30.5" r="30.5" transform="translate(0.619 0.81)" fill="#3E0000"/>
    <path id="Path_19" data-name="Path 19" d="M2295.56,869.716c7.362,7.108,8.44,8.567,9.138,9.2s1.65,1.777,1.459,2.919-.126,1.4-1.459,2.729-9.138,9.328-9.138,9.328a3.075,3.075,0,0,1-4.188-.254c-2.094-2.031-.889-3.807,0-4.759s7.234-7.425,7.234-7.425l-8-7.615a3.276,3.276,0,0,1,4.95-4.125Z" transform="translate(-2264.593 -849.155)"/>
    <path id="Subtraction_5" data-name="Subtraction 5" d="M32,64A32.008,32.008,0,0,1,19.544,2.515a32.008,32.008,0,0,1,24.911,58.97A31.8,31.8,0,0,1,32,64ZM31.619,6.095A25.905,25.905,0,1,0,57.523,32,25.934,25.934,0,0,0,31.619,6.095Z" transform="translate(-0.381 -0.19)" fill="none"/>
  </g>
</svg>
